<svg width="246" height="63" viewBox="0 0 246 63" fill="none" xmlns="http://www.w3.org/2000/svg">
<path d="M70.7617 13.7061V38.9805C70.7618 39.7966 71.0216 40.498 71.5732 41.0312L71.5801 41.0371C72.1214 41.5423 72.7968 41.7871 73.5693 41.7871H75.6182V46.5H73.5693C72.8056 46.5 71.9748 46.3705 71.0752 46.1035H71.0762C70.2163 45.8441 69.4072 45.4202 68.6475 44.8262H68.6465C67.9958 44.3045 67.4381 43.6497 66.9756 42.8555L66.7832 42.5059C66.302 41.5689 66.0489 40.4007 66.0488 38.9805V13.7061H70.7617ZM97.6074 23.748C99.0134 23.7481 100.175 24.0011 101.113 24.4834C102.083 24.9819 102.852 25.6039 103.432 26.3457L103.434 26.3496C104.025 27.0922 104.449 27.8996 104.708 28.7734L104.71 28.7803C104.991 29.6796 105.127 30.5007 105.127 31.2461V38.9805C105.127 39.9189 105.008 40.7525 104.777 41.4863C104.541 42.2221 104.231 42.8657 103.852 43.4219C103.471 43.9644 103.033 44.4303 102.535 44.8213C102.151 45.1117 101.753 45.3626 101.34 45.5742L100.922 45.7734L100.917 45.7754C100.365 46.0239 99.7994 46.2088 99.2217 46.333C98.65 46.4444 98.1124 46.5 97.6074 46.5H87.3018C86.5688 46.5 85.7532 46.3712 84.8516 46.1035C84.0863 45.8763 83.3657 45.523 82.6895 45.041L82.4023 44.8262C81.7635 44.304 81.2061 43.6485 80.7334 42.8525L80.5352 42.501C80.0557 41.5649 79.8038 40.3981 79.8037 38.9805V31.2461C79.8037 29.8405 80.0568 28.6872 80.5371 27.7656C81.0515 26.7925 81.6757 26.0214 82.4053 25.4404L82.4062 25.4395C83.1643 24.833 83.9793 24.4035 84.8516 24.1445C85.7532 23.8769 86.5688 23.748 87.3018 23.748H97.6074ZM115.806 13.7061V46.5H111.093V13.7061H115.806ZM136.992 23.7041L124.649 33.6465L124.208 34.0029L124.616 34.3965L137.171 46.5H130.372L119.004 35.5225L118.999 35.5166L118.993 35.5117L118.807 35.3252C118.406 34.881 118.225 34.3549 118.255 33.7197C118.274 33.4591 118.327 33.2159 118.413 32.9883L118.511 32.7656C118.668 32.466 118.877 32.2171 119.139 32.0146L119.146 32.0088L129.445 23.7041H136.992ZM158.516 23.748C159.248 23.7481 160.047 23.8771 160.917 24.1436H160.92C161.778 24.4024 162.57 24.8256 163.298 25.416L163.306 25.4219C164.033 25.9874 164.649 26.7414 165.147 27.6973L165.148 27.7002C165.629 28.6072 165.882 29.7385 165.882 31.1143C165.882 31.8464 165.752 32.6532 165.485 33.5381L165.381 33.8525C165.156 34.4765 164.838 35.0725 164.425 35.6406L164.21 35.9219V35.9229C163.715 36.5472 163.075 37.0916 162.281 37.5527L161.932 37.7461L161.929 37.7471C161.022 38.2272 159.891 38.4804 158.516 38.4805H148.71V34.0527H158.516C159.398 34.0526 160.147 33.7819 160.688 33.1855L160.692 33.1797C161.205 32.5964 161.454 31.8826 161.454 31.0703C161.454 30.2073 161.169 29.4764 160.563 28.9414H160.564C159.998 28.4278 159.304 28.1749 158.516 28.1748H148.21C147.377 28.1748 146.666 28.4222 146.136 28.959L146.032 29.0703C145.518 29.6405 145.271 30.3488 145.271 31.1582V39.1338C145.271 40.0054 145.544 40.7454 146.139 41.2842L146.145 41.2891C146.728 41.8016 147.442 42.0508 148.254 42.0508H158.016V46.5H148.21C147.569 46.5 146.87 46.4009 146.112 46.1973L145.783 46.1035C144.94 45.8447 144.147 45.4292 143.404 44.8525C142.688 44.2709 142.077 43.5145 141.578 42.5723C141.096 41.6491 140.844 40.5092 140.844 39.1338V31.1143C140.844 30.3818 140.973 29.5817 141.239 28.7119L141.24 28.709C141.5 27.8485 141.915 27.0543 142.492 26.3262L142.493 26.3271C143.075 25.5961 143.832 24.9792 144.774 24.4805L144.773 24.4795C145.696 23.9986 146.836 23.748 148.21 23.748H158.516ZM198.115 23.748V28.4609H184.619C184.292 28.4609 183.984 28.5 183.724 28.6084V28.6094C183.525 28.6848 183.346 28.798 183.203 28.959L183.142 29.0342L183.135 29.043C183.011 29.2167 182.938 29.4137 182.914 29.623C182.897 29.7606 182.889 29.899 182.889 30.0371V30.0684C182.906 30.3398 182.959 30.606 183.083 30.8291C183.188 31.0189 183.334 31.1918 183.535 31.3066L183.548 31.3135L183.561 31.3193C183.731 31.4045 183.912 31.4574 184.102 31.4785L184.13 31.4824H193.43C194.836 31.4824 195.998 31.7353 196.937 32.2178C197.906 32.7162 198.674 33.3384 199.254 34.0801L199.257 34.084C199.848 34.8265 200.272 35.634 200.531 36.5078L200.533 36.5146C200.814 37.4139 200.95 38.2351 200.95 38.9805C200.95 39.919 200.83 40.7525 200.6 41.4863L200.508 41.7578C200.286 42.3794 200.009 42.9315 199.678 43.417C199.296 43.9616 198.856 44.4291 198.357 44.8213C197.973 45.1118 197.575 45.3626 197.162 45.5742L196.744 45.7734L196.74 45.7754C196.188 46.024 195.623 46.2087 195.045 46.333C194.473 46.4445 193.935 46.5 193.43 46.5H178.461V41.7871H193.386C194.242 41.7871 194.976 41.5684 195.497 41.0479C196.014 40.5305 196.237 39.814 196.237 38.9805V38.9678L196.236 38.9561C196.196 38.1205 195.961 37.4104 195.457 36.9111C194.95 36.4086 194.246 36.1953 193.43 36.1953H184.575C183.372 36.1953 182.383 35.9852 181.59 35.5889C180.867 35.2273 180.271 34.7915 179.793 34.2861L179.596 34.0654C179.156 33.5294 178.823 32.9617 178.594 32.3613L178.502 32.1006C178.281 31.3803 178.176 30.7228 178.176 30.125C178.176 28.9077 178.392 27.9234 178.799 27.1494L178.801 27.1465C179.226 26.3229 179.754 25.6711 180.38 25.1787C181.02 24.6747 181.71 24.3172 182.451 24.1016L182.459 24.0986C183.226 23.8615 183.931 23.748 184.575 23.748H198.115ZM210.771 13.7061V46.5H206.059V13.7061H210.771ZM223.884 23.748C224.385 23.748 224.92 23.8085 225.49 23.9336L225.502 23.9365C226.063 24.046 226.619 24.224 227.172 24.4727L227.177 24.4746C227.737 24.7206 228.273 25.0422 228.783 25.4424L229.092 25.0498L228.783 25.4434L228.79 25.4482C229.286 25.8235 229.725 26.2887 230.106 26.8477L230.11 26.8525C230.488 27.392 230.796 28.0268 231.032 28.7617C231.263 29.4798 231.382 30.3063 231.382 31.2461V46.5H226.669V31.2461C226.669 30.4706 226.483 29.796 226.043 29.2979L225.951 29.2002C225.445 28.6787 224.724 28.4609 223.884 28.4609H214.079V23.748H223.884ZM171.193 41.7871C171.501 41.7871 171.786 41.8512 172.055 41.9795L172.065 41.9854L172.078 41.9902C172.368 42.1111 172.609 42.2772 172.808 42.4873L172.817 42.498L172.827 42.5078C173.037 42.7063 173.203 42.9472 173.324 43.2373L173.329 43.249L173.335 43.2607C173.463 43.5289 173.528 43.8144 173.528 44.1221C173.528 44.4472 173.462 44.7496 173.332 45.0342L173.786 45.2422L173.331 45.0342L173.327 45.043C173.206 45.3213 173.037 45.5692 172.817 45.7891C172.668 45.9385 172.493 46.0676 172.29 46.1748L172.078 46.2744L172.07 46.2773C171.799 46.3954 171.508 46.4561 171.193 46.4561C170.863 46.4561 170.557 46.3951 170.271 46.2764C169.99 46.154 169.741 45.9905 169.522 45.7852C169.372 45.6232 169.243 45.4454 169.138 45.25L169.037 45.043C168.919 44.7568 168.859 44.4513 168.859 44.1221C168.859 43.8072 168.919 43.5158 169.037 43.2441L169.04 43.2373C169.163 42.9412 169.326 42.6972 169.525 42.498C169.745 42.2781 169.994 42.1084 170.272 41.9873L170.281 41.9834C170.566 41.853 170.868 41.7871 171.193 41.7871ZM87.3457 28.4609C86.5042 28.4609 85.7814 28.679 85.2627 29.1934L85.168 29.291C84.7115 29.7888 84.5166 30.4659 84.5166 31.2461V38.9805C84.5167 39.814 84.7385 40.5305 85.2559 41.0479C85.775 41.567 86.5006 41.7871 87.3457 41.7871H97.6074C98.4622 41.787 99.1947 41.5689 99.7031 41.041C100.202 40.523 100.414 39.8091 100.414 38.9805V31.29C100.414 30.4238 100.197 29.682 99.668 29.1719C99.15 28.6731 98.4361 28.461 97.6074 28.4609H87.3457Z" fill="#8D2C2E"/>
<g clip-path="url(#clip0_216_1315)">
<path d="M33.6137 27.1637L20.1753 27.1637" stroke="url(#paint0_linear_216_1315)" stroke-width="1.12321"/>
<path d="M33.6137 29.8514H15.875L14.2624 26.0886H11.5747" stroke="url(#paint1_linear_216_1315)" stroke-width="1.12321"/>
<path d="M38.989 32.0015H23.938" stroke="url(#paint2_linear_216_1315)" stroke-width="1.12321"/>
<path d="M37.1079 34.6892H19.0187L15.8343 33.0765H12.6499" stroke="url(#paint3_linear_216_1315)" stroke-width="1.12321"/>
<path d="M33.614 37.377H18.563" stroke="url(#paint4_linear_216_1315)" stroke-width="1.12321"/>
<path d="M28.7763 40.0646H20.7132L17.488 42.2147H14.8003" stroke="url(#paint5_linear_216_1315)" stroke-width="1.12321"/>
<path d="M49.7402 39.7832H42.2148V40.3457H49.7402V41.9336H39.5273V42.4961H49.7402V44.084H40.6025V44.6465H49.7402V46.2334H38.4521V46.7959H49.7402V48.1279H22.8633V37.377H49.7402V39.7832Z" fill="url(#paint6_linear_216_1315)"/>
<circle cx="20.1757" cy="27.1637" r="1.07508" fill="#9E1F21"/>
<circle cx="23.4008" cy="32.0016" r="1.07508" fill="#9E1F21"/>
<circle cx="18.0253" cy="37.3768" r="1.07508" fill="#9E1F21"/>
<circle cx="14.8002" cy="42.2147" r="1.07508" fill="#9E1F21"/>
<circle cx="12.6498" cy="33.0765" r="1.07508" fill="#9E1F21"/>
<circle cx="11.5751" cy="26.0887" r="1.07508" fill="#9E1F21"/>
<path d="M23.9385 14.2627H24.5V10.5H30.9268V18.5635H31.4883V10.5H32.5391V15.875H33.1006V10.5H33.6143V26.626H22.8633V10.5H23.9385V14.2627Z" fill="url(#paint7_linear_216_1315)"/>
</g>
<defs>
<linearGradient id="paint0_linear_216_1315" x1="22.909" y1="25.7065" x2="32.5046" y2="27.9964" gradientUnits="userSpaceOnUse">
<stop stop-color="#8B1C1E"/>
<stop offset="1" stop-color="#946566"/>
</linearGradient>
<linearGradient id="paint1_linear_216_1315" x1="19.0908" y1="27.2046" x2="27.6817" y2="31.0227" gradientUnits="userSpaceOnUse">
<stop stop-color="#8B1C1E"/>
<stop offset="1" stop-color="#946566"/>
</linearGradient>
<linearGradient id="paint2_linear_216_1315" x1="27.6816" y1="31.4761" x2="31.5074" y2="32.8821" gradientUnits="userSpaceOnUse">
<stop stop-color="#8B1C1E"/>
<stop offset="1" stop-color="#7C4142"/>
</linearGradient>
<linearGradient id="paint3_linear_216_1315" x1="21" y1="31.5" x2="29.1136" y2="35.3182" gradientUnits="userSpaceOnUse">
<stop stop-color="#8B1C1E"/>
<stop offset="1" stop-color="#7C4142"/>
</linearGradient>
<linearGradient id="paint4_linear_216_1315" x1="23.8638" y1="36.2201" x2="30.6134" y2="38.5211" gradientUnits="userSpaceOnUse">
<stop stop-color="#8B1C1E"/>
<stop offset="1" stop-color="#7C4142"/>
</linearGradient>
<linearGradient id="paint5_linear_216_1315" x1="21.7883" y1="40.0646" x2="21.7883" y2="42.2147" gradientUnits="userSpaceOnUse">
<stop stop-color="#8B1C1E"/>
<stop offset="1" stop-color="#7C4142"/>
</linearGradient>
<linearGradient id="paint6_linear_216_1315" x1="25.7729" y1="37.2272" x2="58.0003" y2="55" gradientUnits="userSpaceOnUse">
<stop stop-color="#8B1C1E"/>
<stop offset="1" stop-color="#946566"/>
</linearGradient>
<linearGradient id="paint7_linear_216_1315" x1="24.341" y1="16.7047" x2="33.4094" y2="28.6367" gradientUnits="userSpaceOnUse">
<stop stop-color="#8B1C1E"/>
<stop offset="1" stop-color="#946566"/>
</linearGradient>
<clipPath id="clip0_216_1315">
<rect width="63" height="63" fill="white"/>
</clipPath>
</defs>
</svg>
