<svg width="166" height="33" viewBox="0 0 166 33" fill="none" xmlns="http://www.w3.org/2000/svg">
<path d="M4.71289 0V25.2744C4.71299 26.0906 4.97281 26.7919 5.52441 27.3252L5.53125 27.3311C6.07257 27.8363 6.74801 28.0811 7.52051 28.0811H9.56934V32.7939H7.52051C6.7568 32.7939 5.92596 32.6645 5.02637 32.3975H5.02734C4.1675 32.1381 3.35838 31.7141 2.59863 31.1201H2.59766C1.94692 30.5985 1.3893 29.9436 0.926758 29.1494L0.734375 28.7998C0.2532 27.8629 5.79822e-05 26.6946 0 25.2744V0H4.71289ZM31.5586 10.042C32.9645 10.0421 34.1265 10.295 35.0645 10.7773C36.0337 11.2758 36.8028 11.8978 37.3828 12.6396L37.3848 12.6436C37.9761 13.3861 38.3997 14.1935 38.6592 15.0674L38.6611 15.0742C38.9422 15.9736 39.0781 16.7947 39.0781 17.54V25.2744C39.0781 26.2128 38.9592 27.0465 38.7285 27.7803C38.4925 28.516 38.1826 29.1596 37.8027 29.7158C37.4223 30.2584 36.9837 30.7243 36.4863 31.1152C36.1025 31.4057 35.7038 31.6566 35.291 31.8682L34.873 32.0674L34.8682 32.0693C34.3158 32.3179 33.7506 32.5027 33.1729 32.627C32.6012 32.7383 32.0636 32.7939 31.5586 32.7939H21.2529C20.52 32.7939 19.7043 32.6651 18.8027 32.3975C18.0374 32.1703 17.3169 31.8169 16.6406 31.335L16.3535 31.1201C15.7147 30.598 15.1573 29.9424 14.6846 29.1465L14.4863 28.7949C14.0068 27.8589 13.7549 26.6921 13.7549 25.2744V17.54C13.7549 16.1345 14.008 14.9811 14.4883 14.0596C15.0027 13.0865 15.6269 12.3154 16.3564 11.7344L16.3574 11.7334C17.1155 11.1269 17.9305 10.6974 18.8027 10.4385C19.7044 10.1708 20.5199 10.042 21.2529 10.042H31.5586ZM49.7568 0V32.7939H45.0439V0H49.7568ZM70.9434 9.99805L58.6006 19.9404L58.1592 20.2969L58.5674 20.6904L71.1221 32.7939H64.3232L52.9551 21.8164L52.9502 21.8105L52.9443 21.8057L52.7578 21.6191C52.3576 21.1749 52.1765 20.6488 52.2061 20.0137C52.2247 19.753 52.2777 19.5099 52.3643 19.2822L52.4619 19.0596C52.6189 18.7599 52.8278 18.5111 53.0898 18.3086L53.0977 18.3027L63.3965 9.99805H70.9434ZM92.4668 10.042C93.1991 10.042 93.9985 10.171 94.8682 10.4375H94.8711C95.7293 10.6964 96.5213 11.1195 97.249 11.71L97.2568 11.7158C97.9839 12.2813 98.5999 13.0354 99.0986 13.9912L99.0996 13.9941C99.5798 14.9011 99.833 16.0324 99.833 17.4082C99.833 18.1403 99.7032 18.9471 99.4365 19.832L99.332 20.1465C99.107 20.7705 98.7893 21.3664 98.376 21.9346L98.1611 22.2158V22.2168C97.6664 22.8411 97.0262 23.3855 96.2324 23.8467L95.8828 24.04L95.8799 24.041C94.973 24.5211 93.8423 24.7744 92.4668 24.7744H82.6611V20.3467H92.4668C93.3494 20.3466 94.0982 20.0759 94.6387 19.4795L94.6436 19.4736C95.1561 18.8904 95.4052 18.1765 95.4053 17.3643C95.4053 16.5013 95.1205 15.7704 94.5146 15.2354H94.5156C93.9487 14.7217 93.2556 14.4689 92.4668 14.4688H82.1611C81.3286 14.4688 80.6169 14.7162 80.0869 15.2529L79.9834 15.3643C79.4695 15.9344 79.2227 16.6427 79.2227 17.4521V25.4277C79.2227 26.2993 79.4954 27.0394 80.0898 27.5781L80.0957 27.583C80.679 28.0955 81.3927 28.3447 82.2051 28.3447H91.9668V32.7939H82.1611C81.52 32.7939 80.8215 32.6949 80.0635 32.4912L79.7344 32.3975C78.8909 32.1386 78.0985 31.7232 77.3555 31.1465C76.6389 30.5648 76.0286 29.8085 75.5293 28.8662C75.0476 27.943 74.7949 26.8032 74.7949 25.4277V17.4082C74.7949 16.6758 74.9239 15.8756 75.1904 15.0059L75.1914 15.0029C75.451 14.1424 75.8664 13.3483 76.4434 12.6201L76.4443 12.6211C77.0266 11.89 77.7835 11.2731 78.7256 10.7744L78.7246 10.7734C79.6474 10.2925 80.7868 10.042 82.1611 10.042H92.4668ZM132.066 10.042V14.7549H118.57C118.243 14.7549 117.935 14.794 117.675 14.9023V14.9033C117.477 14.9787 117.297 15.092 117.154 15.2529L117.093 15.3281L117.086 15.3369C116.962 15.5106 116.89 15.7076 116.865 15.917C116.848 16.0546 116.84 16.193 116.84 16.3311V16.3623C116.857 16.6337 116.91 16.9 117.034 17.123C117.14 17.3129 117.285 17.4857 117.486 17.6006L117.499 17.6074L117.512 17.6133C117.682 17.6984 117.863 17.7514 118.053 17.7725L118.081 17.7764H127.381C128.787 17.7764 129.95 18.0293 130.888 18.5117C131.857 19.0101 132.625 19.6324 133.205 20.374L133.208 20.3779C133.799 21.1205 134.223 21.9279 134.482 22.8018L134.484 22.8086C134.765 23.7079 134.901 24.5291 134.901 25.2744C134.901 26.2129 134.782 27.0464 134.551 27.7803L134.459 28.0518C134.237 28.6734 133.96 29.2255 133.629 29.7109C133.248 30.2556 132.808 30.7231 132.309 31.1152C131.925 31.4058 131.526 31.6565 131.113 31.8682L130.695 32.0674L130.691 32.0693C130.139 32.3179 129.574 32.5027 128.996 32.627C128.424 32.7384 127.886 32.7939 127.381 32.7939H112.412V28.0811H127.337C128.193 28.0811 128.927 27.8624 129.448 27.3418C129.966 26.8245 130.188 26.1079 130.188 25.2744V25.2617L130.188 25.25C130.147 24.4145 129.912 23.7044 129.408 23.2051C128.901 22.7026 128.197 22.4893 127.381 22.4893H118.526C117.323 22.4893 116.334 22.2792 115.541 21.8828C114.818 21.5212 114.222 21.0855 113.744 20.5801L113.547 20.3594C113.107 19.8233 112.774 19.2556 112.545 18.6553L112.453 18.3945C112.232 17.6743 112.127 17.0167 112.127 16.4189C112.127 15.2016 112.343 14.2174 112.75 13.4434L112.752 13.4404C113.177 12.6168 113.706 11.9651 114.331 11.4727C114.971 10.9686 115.661 10.6112 116.402 10.3955L116.41 10.3926C117.177 10.1555 117.882 10.042 118.526 10.042H132.066ZM144.723 0V32.7939H140.01V0H144.723ZM157.835 10.042C158.336 10.042 158.871 10.1025 159.441 10.2275L159.453 10.2305C160.014 10.3399 160.571 10.518 161.123 10.7666L161.128 10.7686C161.688 11.0145 162.224 11.3362 162.734 11.7363L163.043 11.3438L162.734 11.7373L162.741 11.7422C163.237 12.1174 163.676 12.5827 164.058 13.1416L164.062 13.1465C164.439 13.686 164.748 14.3207 164.983 15.0557C165.214 15.7738 165.333 16.6003 165.333 17.54V32.7939H160.62V17.54C160.62 16.7645 160.434 16.09 159.994 15.5918L159.902 15.4941C159.396 14.9726 158.675 14.7549 157.835 14.7549H148.03V10.042H157.835ZM105.145 28.0811C105.452 28.0811 105.738 28.1452 106.006 28.2734L106.017 28.2793L106.029 28.2842C106.319 28.4051 106.56 28.5712 106.759 28.7812L106.769 28.792L106.778 28.8018C106.988 29.0002 107.154 29.2411 107.275 29.5312L107.28 29.543L107.286 29.5547C107.414 29.8229 107.479 30.1083 107.479 30.416C107.479 30.7411 107.414 31.0436 107.283 31.3281L107.737 31.5361L107.282 31.3281L107.278 31.3369C107.157 31.6152 106.988 31.8631 106.769 32.083C106.619 32.2324 106.444 32.3616 106.241 32.4688L106.029 32.5684L106.021 32.5713C105.75 32.6894 105.459 32.75 105.145 32.75C104.814 32.75 104.508 32.689 104.222 32.5703C103.941 32.4479 103.693 32.2844 103.474 32.0791C103.323 31.9171 103.194 31.7393 103.089 31.5439L102.988 31.3369C102.87 31.0508 102.811 30.7452 102.811 30.416C102.811 30.1012 102.87 29.8098 102.988 29.5381L102.991 29.5312C103.115 29.2351 103.277 28.9911 103.477 28.792C103.697 28.572 103.945 28.4023 104.224 28.2812L104.232 28.2773C104.517 28.1469 104.819 28.0811 105.145 28.0811ZM21.2969 14.7549C20.4553 14.7549 19.7325 14.9729 19.2139 15.4873L19.1191 15.585C18.6627 16.0828 18.4678 16.7598 18.4678 17.54V25.2744C18.4679 26.1079 18.6897 26.8245 19.207 27.3418C19.7261 27.8609 20.4517 28.0811 21.2969 28.0811H31.5586C32.4134 28.081 33.1459 27.8629 33.6543 27.335C34.1531 26.817 34.3652 26.1031 34.3652 25.2744V17.584C34.3652 16.7177 34.1486 15.9759 33.6191 15.4658C33.1012 14.967 32.3872 14.755 31.5586 14.7549H21.2969Z" fill="#8D2C2E"/>
</svg>
